<?xml version="1.0" encoding="UTF-8"?>
<svg version="1.1" xmlns="http://www.w3.org/2000/svg" width="1563" height="1563">
<path d="M0 0 C515.79 0 1031.58 0 1563 0 C1563 515.79 1563 1031.58 1563 1563 C1047.21 1563 531.42 1563 0 1563 C0 1047.21 0 531.42 0 0 Z " fill="#FEFEFE" transform="translate(0,0)"/>
<path d="M0 0 C7.8113807 18.79267176 15.19007071 37.73993908 22.5009613 56.73161316 C22.86802689 57.68514175 23.23509247 58.63867035 23.61328125 59.62109375 C23.98095108 60.57635452 24.34862091 61.5316153 24.72743225 62.51582336 C28.41296613 72.08492239 32.14058496 81.63739397 35.875 91.1875 C41.73477436 106.17731086 47.56243116 121.17932425 53.375 136.1875 C59.55258469 152.13713032 65.75883909 168.07514124 72 184 C78.24116126 199.92485966 84.44721727 215.86294585 90.625 231.8125 C96.4620059 246.88173291 102.30955564 261.94668355 108.1875 277 C108.51203156 277.83123383 108.83656311 278.66246765 109.17092896 279.51889038 C112.4488506 287.91418041 115.72941105 296.30843697 119.01184082 304.70196533 C120.36112637 308.15268132 121.70983018 311.60362435 123.05822754 315.0546875 C123.72305626 316.75623529 124.38801212 318.45773341 125.05310059 320.15917969 C128.83308554 329.8318937 132.5888262 339.51339323 136.3046875 349.2109375 C136.65407883 350.12227448 137.00347015 351.03361145 137.3634491 351.9725647 C139.04390281 356.35731299 140.72097905 360.7433091 142.39282227 365.13134766 C142.98967464 366.6917591 143.5865946 368.2521447 144.18359375 369.8125 C144.45569672 370.53013519 144.72779968 371.24777039 145.00814819 371.9871521 C146.08768884 375.24050867 146.08768884 375.24050867 148 378 C148.24008789 377.3287207 148.48017578 376.65744141 148.72753906 375.96582031 C174.39555206 304.56383118 209.60688928 235.71006853 260.953125 179.265625 C262.83522121 177.18238873 264.67162312 175.06781067 266.5 172.9375 C272.80138437 165.71928604 279.71168855 159.20389141 287 153 C287.91007813 152.20078125 288.82015625 151.4015625 289.7578125 150.578125 C321.94989597 122.50898714 359.25479113 103.02175391 401 94 C401.83047852 93.81920898 402.66095703 93.63841797 403.51660156 93.45214844 C414.60600679 91.15005565 425.64717161 90.72342812 436.9375 90.6875 C438.22922119 90.68186035 439.52094238 90.6762207 440.85180664 90.67041016 C449.07579801 90.73274914 456.91574208 91.51260556 465 93 C465.78511963 93.135271 466.57023926 93.27054199 467.37915039 93.40991211 C516.22161267 102.12556693 555.50483633 136.49240629 583.15234375 176.08203125 C584.46240167 178.03941191 585.75329743 180.00186027 587 182 C600.99115539 180.33903882 614.90379265 178.26185464 628.82421875 176.09375 C630.90360421 175.77056542 632.98303255 175.44765663 635.0625 175.125 C636.12331787 174.96032227 637.18413574 174.79564453 638.27709961 174.62597656 C644.86420057 173.61191286 651.45627308 172.64018251 658.0546875 171.703125 C658.83156418 171.59277924 659.60844086 171.48243347 660.40885925 171.3687439 C664.24151456 170.82540159 668.07465754 170.28576554 671.90844727 169.75048828 C673.33356093 169.55026562 674.75861147 169.34959306 676.18359375 169.1484375 C676.86492874 169.05230164 677.54626373 168.95616577 678.24824524 168.8571167 C683.10782273 168.15881692 687.92487146 167.31464149 692.73657227 166.34179688 C696.47757263 165.77687394 699.32002272 166.08000568 703 167 C705.84610137 169.31245736 705.9706247 170.7980448 706.5 174.4375 C705.86266292 178.97852667 704.30790901 179.91702996 701 183 C699.32635976 184.68443577 697.65320074 186.36934978 695.98046875 188.0546875 C694.54165542 189.50088274 693.10235519 190.94659145 691.6628418 192.39208984 C690.68374233 193.376212 689.70554305 194.36123062 688.72827148 195.34716797 C683.60588941 200.51356714 678.44888557 205.56838604 672.91918945 210.30126953 C669.2763576 213.52564608 665.90733733 217.03059823 662.5 220.5 C658.44535293 224.62850221 654.40530943 228.70972282 650.015625 232.484375 C645.52681584 236.34581122 641.39778714 240.52853991 637.25 244.75 C635.77843978 246.24715257 634.30456316 247.74203266 632.828125 249.234375 C632.1877832 249.88631836 631.54744141 250.53826172 630.88769531 251.20996094 C629.02208177 252.97906059 627.08653672 254.5013505 625 256 C625.57293333 262.81064406 627.42481662 268.78056254 629.5625 275.25 C637.18173874 299.38047147 642.00017177 323.95156121 645.4375 349 C645.5632843 349.90554626 645.6890686 350.81109253 645.81866455 351.74407959 C648.54593487 371.64875776 649.17071889 391.38049594 649.13037109 411.45507812 C649.1249933 414.62895453 649.13036514 417.80269023 649.13671875 420.9765625 C649.14492822 438.58527945 648.51200944 455.78600798 645.75 473.1875 C645.64051025 473.8937854 645.53102051 474.6000708 645.41821289 475.32775879 C643.58570086 487.12662236 641.35439913 498.79387861 638.60302734 510.41601562 C638.01552826 512.93346107 637.46613013 515.45643865 636.92578125 517.984375 C628.62739937 555.93202915 613.96120778 593.55787491 596.06298828 627.94335938 C594.88688137 630.21885882 593.73861633 632.50746115 592.58984375 634.796875 C582.96904727 653.78030059 571.809747 671.99370906 559 689 C558.50290527 689.66547852 558.00581055 690.33095703 557.49365234 691.01660156 C547.59963297 704.23869126 537.13817013 716.80546432 526 729 C525.13246094 729.97195313 524.26492188 730.94390625 523.37109375 731.9453125 C511.91836461 744.68821043 499.42293678 756.35739717 486 767 C484.78833888 768.00015513 483.57885927 769.00295659 482.37109375 770.0078125 C461.81441003 787.05836867 439.43987339 801.24664204 416 814 C415.33613281 814.36544922 414.67226563 814.73089844 413.98828125 815.10742188 C351.83759666 849.26070283 280.28514256 866.62043097 210 873 C208.73140137 873.11714355 207.46280273 873.23428711 206.15576172 873.35498047 C183.64840126 875.29323429 161.0722151 875.17964281 138.5 875.1875 C137.74846146 875.18808914 136.99692291 875.18867828 136.22261047 875.18928528 C131.79696279 875.19225682 127.37140808 875.18796335 122.9457798 875.17421913 C121.50708141 875.17006469 120.06837855 875.16723758 118.62967491 875.16576195 C111.02644612 875.15466825 103.46702973 875.0177889 95.87915039 874.51586914 C94.60128662 874.43931595 93.32342285 874.36276276 92.00683594 874.28388977 C89.62354135 874.13082466 87.24193856 873.94685836 84.86401367 873.72550964 C78.99649933 873.30952244 78.99649933 873.30952244 73.65965271 875.41601562 C70.38698129 878.36718083 67.68041113 881.63900698 65.58984375 885.53125 C63.21698631 889.69821916 60.51970858 893.34771097 57.5 897.0625 C56.60246073 898.20931946 55.70532761 899.3564569 54.80859375 900.50390625 C50.2696647 906.21583507 45.42290368 911.66748485 40.61425781 917.15185547 C38.0350732 920.10473319 35.4858871 923.0830466 32.9375 926.0625 C32.44789795 926.63395752 31.9582959 927.20541504 31.45385742 927.79418945 C28.94251292 930.72609206 26.43577549 933.66183644 23.93359375 936.6015625 C18.4644527 943.01849072 12.92560988 949.34391827 7.2265625 955.55859375 C5.30866793 957.66154833 3.42623955 959.78669156 1.5625 961.9375 C-2.7160062 966.85728113 -7.14478162 971.6394196 -11.56054688 976.43554688 C-13.42065196 978.45718076 -15.27695657 980.48227831 -17.1328125 982.5078125 C-18.50994274 984.01085179 -19.88778593 985.5132355 -21.265625 987.015625 C-23.04936982 988.96129843 -24.83008454 990.90961359 -26.609375 992.859375 C-46.70490019 1014.85743512 -46.70490019 1014.85743512 -56.18432617 1024.15136719 C-57.89878177 1025.89694441 -59.4815248 1027.69623604 -61.0625 1029.5625 C-66.46152536 1035.77280748 -72.40528718 1041.44905964 -78.26171875 1047.22265625 C-83.39480222 1052.31129744 -88.3448343 1057.46856781 -93 1063 C-99.64142098 1058.87517812 -105.61771461 1054.12416475 -111.640625 1049.16333008 C-116.3365025 1045.31103963 -121.11643452 1041.61068932 -126 1038 C-132.20951176 1033.40261694 -138.23282676 1028.61811898 -144.20654297 1023.71923828 C-148.81434407 1019.94571556 -153.48449072 1016.27175509 -158.21875 1012.65869141 C-162.06753377 1009.72127504 -165.88505637 1006.74714387 -169.6875 1003.75 C-175.10866771 999.4788233 -180.54949115 995.2336671 -186 991 C-194.24687153 984.59271498 -202.46318155 978.14755317 -210.66796875 971.68652344 C-217.76135426 966.10192914 -224.87092994 960.53899315 -232 955 C-240.24677811 948.59259384 -248.46318069 942.14755385 -256.66796875 935.68652344 C-263.76135426 930.10192914 -270.87092994 924.53899315 -278 919 C-285.12329278 913.46549557 -292.22696692 907.9069184 -299.31445312 902.32666016 C-302.20808823 900.04913797 -305.10416552 897.77472459 -308 895.5 C-311.45427351 892.78661257 -314.90816048 890.07274646 -318.359375 887.35546875 C-324.88985886 882.21573608 -331.43749359 877.09879658 -338 872 C-346.24677811 865.59259384 -354.46318069 859.14755385 -362.66796875 852.68652344 C-369.76135426 847.10192914 -376.87092994 841.53899315 -384 836 C-391.12329278 830.46549557 -398.22696692 824.9069184 -405.31445312 819.32666016 C-407.62258497 817.50997585 -409.93234554 815.69536856 -412.2421875 813.88085938 C-413.98976335 812.50804145 -415.73706985 811.1348812 -417.484375 809.76171875 C-419.86884396 807.88811228 -422.25438395 806.01588018 -424.640625 804.14453125 C-427.55542653 801.85830483 -430.46778149 799.56900207 -433.37792969 797.27685547 C-434.95119769 796.03841602 -436.52635061 794.80237226 -438.1015625 793.56640625 C-439.47441406 792.48166016 -439.47441406 792.48166016 -440.875 791.375 C-441.67679687 790.74335937 -442.47859375 790.11171875 -443.3046875 789.4609375 C-443.86414063 788.97882812 -444.42359375 788.49671875 -445 788 C-445 787.67 -445 787.34 -445 787 C-444.319375 786.90203125 -443.63875 786.8040625 -442.9375 786.703125 C-436.3242123 785.6829902 -429.89897968 784.28171996 -423.42236328 782.60253906 C-418.10271568 781.23788482 -412.75635071 780.09316252 -407.375 779 C-399.45451791 777.37221198 -391.74951018 775.31520636 -384 773 C-382.3913247 772.53921685 -380.78189356 772.08106751 -379.171875 771.625 C-377.86065674 771.2535083 -377.86065674 771.2535083 -376.52294922 770.87451172 C-374.85281679 770.40177462 -373.18258317 769.92939475 -371.51220703 769.45751953 C-354.93076042 764.73643608 -338.50202433 759.63634017 -322.1875 754.0625 C-321.24988831 753.74285278 -320.31227661 753.42320557 -319.34625244 753.09387207 C-305.59363499 748.39342358 -291.93796286 743.47277602 -278.375 738.25 C-277.57122925 737.94064514 -276.7674585 737.63129028 -275.93933105 737.31256104 C-267.89469325 734.2044148 -259.90185574 731.00832623 -252.00390625 727.54296875 C-250.79750488 727.01606445 -249.59110352 726.48916016 -248.34814453 725.94628906 C-246.15146354 724.97452897 -243.96279689 723.98433929 -241.78466797 722.97167969 C-234.84688963 719.87124614 -234.84688963 719.87124614 -231.01953125 720.453125 C-229.52486328 721.21882813 -229.52486328 721.21882813 -228 722 C-226.27135573 722.67756697 -224.53613096 723.33843765 -222.796875 723.98828125 C-221.33991211 724.54962769 -221.33991211 724.54962769 -219.85351562 725.12231445 C-209.36251659 729.14556967 -198.92291547 732.73962479 -188.02783203 735.48681641 C-186.08583017 735.97827895 -184.15013017 736.49444405 -182.21484375 737.01171875 C-152.9005103 744.6813427 -122.3392269 749.53264349 -92 750 C-90.06060547 750.03867188 -90.06060547 750.03867188 -88.08203125 750.078125 C-67.2784587 750.46792375 -46.90920989 749.70453799 -26.22900391 747.36376953 C-21.82337105 746.86744464 -17.41260643 746.42917219 -13 746 C-13 745.34 -13 744.68 -13 744 C-13.60150879 743.88897949 -14.20301758 743.77795898 -14.82275391 743.66357422 C-80.10055309 731.17268814 -147.73919893 700.38932772 -204 666 C-205.34336426 665.18039795 -205.34336426 665.18039795 -206.71386719 664.34423828 C-233.39885094 648.00383703 -259.14887271 630.4052299 -283.25878906 610.43701172 C-285.7815772 608.35496868 -288.3309177 606.30593205 -290.875 604.25 C-295.17101484 600.73332218 -299.32063937 597.08165718 -303.41796875 593.3359375 C-305.53144002 591.42390146 -307.66571393 589.54541421 -309.81640625 587.67578125 C-313.8714714 584.13488528 -317.82704077 580.49876672 -321.75 576.8125 C-322.43956787 576.16466553 -323.12913574 575.51683105 -323.83959961 574.84936523 C-331.95974407 567.18968493 -340.01405786 559.48886417 -347.2421875 550.96875 C-349.30872391 548.65422922 -351.51790285 546.53012828 -353.75 544.375 C-389.2465906 509.14691614 -410.30109141 458.50548785 -418.6875 410.0625 C-418.90253174 408.83611816 -419.11756348 407.60973633 -419.33911133 406.34619141 C-421.91401415 390.78961564 -422.23484432 375.17499622 -422.25 359.4375 C-422.25133942 358.60182495 -422.25267883 357.7661499 -422.25405884 356.90515137 C-422.24829875 340.12622491 -421.06199565 323.64732706 -419 307 C-418.89316895 306.10587402 -418.78633789 305.21174805 -418.67626953 304.29052734 C-417.34651717 293.54114985 -414.98383806 282.99996218 -412.625 272.4375 C-412.34495117 271.18316162 -412.06490234 269.92882324 -411.77636719 268.63647461 C-408.12923735 252.71074315 -403.57183139 237.10977728 -398.375 221.625 C-398.11610992 220.85175385 -397.85721985 220.07850769 -397.59048462 219.28182983 C-383.04441852 175.96902956 -363.85520806 134.54121768 -341 95 C-340.00468622 93.26462227 -339.00987978 91.52895344 -338.015625 89.79296875 C-332.8310281 80.7636146 -327.52851458 71.82344591 -322 63 C-318.26107049 64.50224846 -316.45906395 66.60165298 -314 69.75 C-310.47317212 74.17729457 -306.88328662 78.52521972 -303.1875 82.8125 C-302.68226807 83.39918457 -302.17703613 83.98586914 -301.65649414 84.59033203 C-300.62212015 85.79136151 -299.58753231 86.99220686 -298.55273438 88.19287109 C-297.01354018 89.98424144 -295.48212881 91.78195887 -293.953125 93.58203125 C-288.24912595 100.28920456 -282.4346053 106.86376363 -276.45703125 113.328125 C-273.82603544 116.18917608 -271.26432584 119.10175216 -268.71484375 122.03515625 C-262.89591116 128.70240703 -256.90421934 135.21078393 -250.875 141.6875 C-250.30128662 142.3050415 -249.72757324 142.92258301 -249.13647461 143.55883789 C-246.3128868 146.58275463 -243.45591708 149.554143 -240.5078125 152.45703125 C-238.19726587 154.74687886 -236.02739824 157.09459108 -233.92114258 159.57275391 C-229.42694005 164.73592072 -224.59763424 169.54579995 -219.75390625 174.37890625 C-218.77401947 175.35946881 -217.79428099 176.34017959 -216.81468201 177.32102966 C-214.7731736 179.36400213 -212.72989434 181.40518169 -210.68530273 183.44506836 C-208.08547596 186.03919866 -205.49016627 188.63779434 -202.89618015 191.2377634 C-200.87750604 193.26007825 -198.85642267 195.2799719 -196.8346386 197.29917717 C-195.41767676 198.71516246 -194.00270183 200.13313515 -192.58778381 201.55116272 C-188.06118321 206.06150721 -183.48768694 210.44493104 -178.62620544 214.59397888 C-176.47149973 216.4569426 -174.48265765 218.4563375 -172.5 220.5 C-169.21484357 223.82426543 -165.84219312 226.9463983 -162.296875 229.98828125 C-159.3117473 232.60280636 -156.4082244 235.30054146 -153.5 238 C-148.73380266 242.4151957 -143.93092232 246.76849928 -139 251 C-138.50951172 251.42216797 -138.01902344 251.84433594 -137.51367188 252.27929688 C-121.51825018 266.04631272 -105.4007229 279.61058943 -88.77197266 292.61035156 C-87.07634015 293.94013114 -85.38669932 295.27708492 -83.69921875 296.6171875 C-76.95446608 301.96588913 -70.13129235 307.20303932 -63.25 312.375 C-62.50153809 312.93864258 -61.75307617 313.50228516 -60.98193359 314.08300781 C-46.89849581 324.62722922 -32.58008179 334.76884659 -17.91333008 344.48486328 C-15.43263703 346.12822152 -12.95530217 347.77654256 -10.47851562 349.42578125 C10.71868845 363.58424281 10.71868845 363.58424281 32.5 376.8125 C33.51151123 377.39741211 34.52302246 377.98232422 35.56518555 378.58496094 C38.70651302 380.39634267 41.85273754 382.19895399 45 384 C45.97404785 384.56058105 46.9480957 385.12116211 47.95166016 385.69873047 C97.25274096 414.01605426 149.2116485 438.65707782 204.31347656 453.28173828 C206.65010822 453.90645387 208.97850266 454.552535 211.3046875 455.21484375 C217.71744153 457.01122834 224.14450754 458.52355306 230.6875 459.75 C231.34041016 459.87793945 231.99332031 460.00587891 232.66601562 460.13769531 C238.76704109 461.21096788 244.8212625 461.11639694 251 461 C250.36312256 460.56880859 249.72624512 460.13761719 249.07006836 459.69335938 C234.55325153 449.85884232 220.09433657 439.94837064 205.72265625 429.90234375 C203.06696735 428.04679068 200.40876579 426.19489069 197.75 424.34375 C185.35555149 415.70451229 173.07526501 406.91507909 160.88574219 397.98901367 C149.91222357 389.97671382 138.71156431 382.36212535 127.375 374.875 C124.06905695 372.68678672 120.76449501 370.49650048 117.4609375 368.3046875 C116.66170868 367.77442963 115.86247986 367.24417175 115.03903198 366.69784546 C104.26651885 359.53623058 93.57710793 352.2483913 83.125 344.625 C81.60553069 343.52205007 80.08599758 342.41918806 78.56640625 341.31640625 C77.81117676 340.76742676 77.05594727 340.21844727 76.27783203 339.65283203 C74.03123424 338.02266407 71.78022874 336.39880925 69.52734375 334.77734375 C58.62602497 326.93068522 47.7892244 319.00005625 37 311 C36.16645996 310.38334473 35.33291992 309.76668945 34.47412109 309.13134766 C25.02230131 302.13140395 15.68262959 295.04078756 6.59619141 287.57104492 C2.51675175 284.21862897 -1.61200188 280.94930749 -5.8125 277.75 C-11.65110165 273.29365669 -17.33774691 268.6771535 -23 264 C-24.79133862 262.54126373 -26.58300905 261.08293484 -28.375 259.625 C-34.64733002 254.491476 -40.83031331 249.2559838 -47 244 C-47.58749023 243.50032715 -48.17498047 243.0006543 -48.78027344 242.48583984 C-56.28719073 236.09744917 -63.70505034 229.63067445 -71 223 C-72.66588499 221.49913192 -74.33256109 219.99914151 -76 218.5 C-76.825 217.75621094 -77.65 217.01242187 -78.5 216.24609375 C-80.16149806 214.75334159 -81.82815278 213.2663084 -83.5 211.78515625 C-88.7342262 207.13160202 -93.72319165 202.30659822 -98.64453125 197.32421875 C-100.64362028 195.35165163 -102.67326084 193.50383514 -104.8125 191.6875 C-112.89571032 184.75433993 -120.43345017 177.02114232 -127.31640625 168.90234375 C-130.0555495 165.80730253 -133.03518199 162.95591264 -135.9765625 160.0546875 C-138.16745996 157.82995378 -140.13938355 155.50778739 -142 153 C-133.27029078 129.49693672 -110.55212653 108.10093118 -93.71484375 89.93359375 C-91.88382881 87.9550438 -90.06252905 85.97132248 -88.25390625 83.97265625 C-82.89625486 78.06148532 -77.41452348 72.33686646 -71.703125 66.765625 C-69.5857254 64.59926819 -67.61293595 62.41352129 -65.64453125 60.1171875 C-62.14826048 56.08353925 -58.37477624 52.4724518 -54.4375 48.875 C-49.0092512 43.85767471 -43.69556754 38.75794271 -38.5 33.5 C-34.53721548 29.49794759 -30.55966881 25.61340477 -26.2578125 21.97265625 C-22.25302046 18.47365975 -18.40902799 14.79759491 -14.54125977 11.1484375 C-11.45213088 8.2448431 -8.33977673 5.3708891 -5.16015625 2.56640625 C-4.60078369 2.07213135 -4.04141113 1.57785645 -3.46508789 1.06860352 C-2 0 -2 0 0 0 Z " fill="#0D3425" transform="translate(547,366)"/>
<path d="M0 0 C1.5546875 1.84350586 1.5546875 1.84350586 2.875 4.27734375 C3.3803125 5.18597168 3.885625 6.09459961 4.40625 7.03076172 C5.19515625 8.50053467 5.19515625 8.50053467 6 10 C7.12402999 12.00184705 8.24906393 14.00313065 9.375 16.00390625 C10.58492091 18.18922595 11.79318395 20.37546416 13 22.5625 C14.33247011 24.9705304 15.66625579 27.37783137 17 29.78515625 C17.33555908 30.39118683 17.67111816 30.99721741 18.0168457 31.62161255 C21.32433908 37.59242122 24.66012059 43.54725414 28 49.5 C32.8772067 58.19565053 37.72735939 66.90589398 42.5625 75.625 C47.69293589 84.87453329 52.86904098 94.0965017 58.08618164 103.29736328 C61.61685479 109.53188933 65.11285672 115.7847726 68.58691406 122.05102539 C69.85699821 124.3407751 71.12976379 126.62903962 72.40527344 128.91577148 C75.46884867 134.41067404 78.49902902 139.91804007 81.453125 145.47265625 C87.19087384 156.1456598 92.14854543 164.6733679 102 172 C103.36480948 173.17525261 104.71976211 174.36209233 106.0625 175.5625 C106.6915625 176.11164063 107.320625 176.66078125 107.96875 177.2265625 C108.6390625 177.81179688 109.309375 178.39703125 110 179 C111.22203125 180.06347656 111.22203125 180.06347656 112.46875 181.1484375 C123.80881421 191.15638574 134.77022173 203.33795542 136.20092773 219.23217773 C136.93885796 237.00204274 134.2887854 252.16822498 122.6875 266.375 C111.8298561 277.80915597 97.29454026 283.84270647 81.69506836 284.34326172 C59.65149861 284.65316375 44.78785844 272.46628685 29.6328125 257.765625 C29.08463867 257.2392041 28.53646484 256.7127832 27.97167969 256.17041016 C26.95698054 255.18829309 25.95352259 254.19432194 24.96582031 253.18505859 C15.23200148 243.76427727 0.01837391 239.60702119 -12.3125 234.625 C-14.27625491 233.82734771 -16.23979303 233.02916149 -18.203125 232.23046875 C-22.20842535 230.60140575 -26.21452766 228.97433944 -30.22119141 227.34863281 C-37.87008399 224.24276211 -45.50668582 221.107129 -53.14233398 217.96887207 C-57.11906777 216.3346515 -61.09659642 214.70236899 -65.07421875 213.0703125 C-65.8732663 212.74244751 -66.67231384 212.41458252 -67.49557495 212.07678223 C-75.55000407 208.77282273 -83.60814868 205.47796323 -91.66650391 202.18359375 C-95.39701854 200.6584581 -99.12716702 199.13243289 -102.85693359 197.60546875 C-103.76233887 197.23480286 -104.66774414 196.86413696 -105.60058594 196.48223877 C-107.40951632 195.74166533 -109.21843568 195.00106495 -111.02734375 194.26043701 C-116.27232693 192.11375261 -121.51975065 189.97318306 -126.76939392 187.83792114 C-129.97288826 186.53403136 -133.17477584 185.22623028 -136.37631226 183.9175415 C-137.86273497 183.3110302 -139.34988677 182.70630234 -140.83779907 182.10345459 C-142.8651185 181.28186815 -144.88984866 180.45420225 -146.9140625 179.625 C-148.0479541 179.16351563 -149.1818457 178.70203125 -150.35009766 178.2265625 C-153 177 -153 177 -155 175 C-155.47704872 161.16558712 -144.94102438 147.58302871 -137 137 C-136.53464844 136.34902344 -136.06929687 135.69804687 -135.58984375 135.02734375 C-129.29209691 126.8807171 -119.91225015 119.98208473 -110.4375 116.1875 C-106.72836569 114.48502697 -105.31471309 113.59657991 -103.390625 109.94921875 C-102.57775473 107.53436065 -101.81971427 105.10045528 -101.11328125 102.65234375 C-96.43618447 87.30818415 -83.05563387 72.92692915 -70 64 C-67.54139052 62.77692872 -65.02133136 61.71129385 -62.5 60.625 C-57.65979135 58.4134197 -57.65979135 58.4134197 -54.47265625 54.359375 C-53.85615805 52.33789594 -53.30693276 50.29489214 -52.8203125 48.23828125 C-47.67913349 27.94286507 -28.89141933 12.80761352 -11.8125 2.59375 C-10.884375 2.0678125 -9.95625 1.541875 -9 1 C-8.319375 0.5771875 -7.63875 0.154375 -6.9375 -0.28125 C-4.23430403 -1.28404851 -2.72972821 -0.86658452 0 0 Z " fill="#12382A" transform="translate(1235,209)"/>
<path d="M0 0 C3.08413917 2.8423925 5.0538834 5.5610859 6.99609375 9.26953125 C7.54773193 10.31101318 8.09937012 11.35249512 8.66772461 12.42553711 C9.25175049 13.54323486 9.83577637 14.66093262 10.4375 15.8125 C11.69597135 18.1859602 12.95599624 20.55851142 14.21875 22.9296875 C14.53694199 23.52847214 14.85513397 24.12725677 15.18296814 24.7441864 C18.17543165 30.3619274 21.28705724 35.90724395 24.4375 41.4375 C29.17545018 49.76425713 33.85723027 58.11977395 38.5 66.5 C43.13045643 74.85419636 47.78857965 83.19118973 52.5 91.5 C57.8503059 100.93551485 63.13805659 110.40459148 68.37670898 119.90258789 C71.49014459 125.53621075 74.6466314 131.13535619 77.91015625 136.68359375 C78.52503906 137.73804688 79.13992188 138.7925 79.7734375 139.87890625 C80.94105339 141.87507054 82.12151298 143.86379323 83.31640625 145.84375 C83.83203125 146.72933594 84.34765625 147.61492187 84.87890625 148.52734375 C85.3385376 149.29812256 85.79816895 150.06890137 86.27172852 150.86303711 C87 153 87 153 86.26831055 155.12011719 C84.4915602 157.75360663 82.41718742 159.99098256 80.25 162.3125 C76.40417596 166.47044888 72.65383709 170.67308765 69 175 C64.71716398 173.42423958 62.31491559 170.1617956 59.5 166.75 C58.42726025 165.4738096 57.35433854 164.19777214 56.28125 162.921875 C55.73597656 162.26896484 55.19070313 161.61605469 54.62890625 160.94335938 C52.11162711 157.94013067 49.55522898 154.97093229 47 152 C45.99846963 150.832227 44.99716813 149.66425767 43.99609375 148.49609375 C43.50093262 147.91843262 43.00577148 147.34077148 42.49560547 146.74560547 C41.00806221 145.00940986 39.52148492 143.27239171 38.03515625 141.53515625 C32.33205119 134.87152823 26.60520227 128.22936368 20.85571289 121.60571289 C16.72433908 116.84338803 12.61804318 112.06014018 8.51953125 107.26953125 C4.8628562 102.99861157 1.18564521 98.74593331 -2.5 94.5 C-7.17652872 89.11255005 -11.82960826 83.70582395 -16.46728516 78.28491211 C-20.77758493 73.25053324 -25.11530698 68.24022534 -29.4609375 63.23632812 C-30.47017871 62.07389851 -31.47675831 60.9091519 -32.48046875 59.74194336 C-33.53834848 58.52922294 -34.61551074 57.33316735 -35.70703125 56.15063477 C-36.25488281 55.54662842 -36.80273438 54.94262207 -37.3671875 54.3203125 C-38.11524658 53.51424561 -38.11524658 53.51424561 -38.87841797 52.69189453 C-40.69451321 49.95233424 -40.41308767 47.63630183 -39.79296875 44.50390625 C-33.40313148 24.32712944 -17.79404068 10.23575694 0 0 Z " fill="#FDFDFD" transform="translate(1229,219)"/>
<path d="M0 0 C6.0589309 2.57648206 11.48114627 6.60589481 16.77734375 10.46484375 C25.62776969 16.80730226 34.68868474 22.79737067 43.80053711 28.75567627 C65.25326371 42.78964307 86.53040514 57.07448495 107.74267578 71.46844482 C109.97778741 72.98492915 112.21340779 74.50066024 114.44921875 76.01611328 C122.30270117 81.33933952 130.15353999 86.66642621 138 92 C135.77547427 96.66370953 132.61972052 100.27579314 129.30859375 104.22265625 C127.92680613 105.88500988 126.57414954 107.57329755 125.28515625 109.30859375 C123.8125 111.25 123.8125 111.25 121 114 C115.09507595 113.85627311 109.52803221 110.95277856 104.1484375 108.72265625 C103.07819336 108.28479294 102.00794922 107.84692963 100.90527344 107.39579773 C97.3927718 105.95716506 93.88391781 104.50984929 90.375 103.0625 C87.92293158 102.05637426 85.47061765 101.05084666 83.01806641 100.04589844 C78.041878 98.00620146 73.06723657 95.96277954 68.09375 93.91650391 C61.79495593 91.32558046 55.49246704 88.74382946 49.1875 86.16796875 C48.27607742 85.79557571 47.36465485 85.42318268 46.4256134 85.039505 C44.62706352 84.30466628 42.8285051 83.56984844 41.02993774 82.83505249 C36.60647517 81.0272176 32.18406658 79.21680973 27.76171875 77.40625 C26.45614265 76.87175484 26.45614265 76.87175484 25.12419128 76.32646179 C20.4415693 74.40931995 15.75908876 72.49183286 11.07666016 70.57421875 C6.07475427 68.52578169 1.07262129 66.47789992 -3.92962646 64.43029785 C-6.71255564 63.29091893 -9.49520109 62.15084923 -12.27783203 61.01074219 C-13.14420288 60.65610901 -14.01057373 60.30147583 -14.90319824 59.93609619 C-16.58131231 59.249121 -18.25913722 58.56143894 -19.93664551 57.87298584 C-23.79695651 56.29232994 -27.66322546 54.7333933 -31.55224609 53.22460938 C-32.60710457 52.81296539 -32.60710457 52.81296539 -33.68327332 52.39300537 C-35.56353706 51.66211665 -37.44705533 50.93961577 -39.33081055 50.21777344 C-42 49 -42 49 -43 47 C-41.93900518 44.43970766 -40.82010137 42.0249619 -39.5625 39.5625 C-39.19487549 38.8403833 -38.82725098 38.1182666 -38.44848633 37.37426758 C-29.4119006 20.03598175 -17.23887278 8.61943639 0 0 Z " fill="#FDFDFD" transform="translate(1133,331)"/>
<path d="M0 0 C2.24732058 2.00607617 4.10228325 4.29159924 6 6.625 C7.1546125 8.00158349 8.30957007 9.3778776 9.46484375 10.75390625 C10.05120605 11.46047363 10.63756836 12.16704102 11.24169922 12.89501953 C13.96797687 16.15883041 16.76697698 19.35804057 19.5625 22.5625 C26.23645989 30.25491157 32.85939097 37.99074681 39.47949219 45.72949219 C45.67668355 52.97248512 51.89565979 60.19560865 58.14428711 67.39428711 C62.27566092 72.15661197 66.38195682 76.93985982 70.48046875 81.73046875 C74.67662676 86.6314932 78.9017042 91.50702143 83.13134766 96.37915039 C87.39995036 101.29938458 91.64140014 106.24237173 95.87597656 111.19189453 C99.55391201 115.48779276 103.25918788 119.75865668 107 124 C103.59008792 129.54110713 99.38579957 134.20968493 95 139 C91.78525297 138.37071993 89.54946646 137.24717907 86.82421875 135.4465332 C86.00816162 134.91119461 85.19210449 134.37585602 84.35131836 133.82429504 C83.03272827 132.94640572 83.03272827 132.94640572 81.6875 132.05078125 C80.76396729 131.44171432 79.84043457 130.8326474 78.88891602 130.2051239 C76.92351004 128.90726748 74.95993539 127.60663424 72.99804688 126.3034668 C70.07055876 124.35935722 67.13744383 122.42401406 64.203125 120.49023438 C55.02854866 114.4288077 45.92144772 108.29012951 36.9375 101.94921875 C26.45348019 94.55044069 15.74265308 87.51580195 5 80.5 C-11.58176937 69.67079338 -27.89521889 58.52639127 -44 47 C-43.49843807 41.69971038 -42.18837866 37.57036554 -39.625 32.875 C-39.2748584 32.22974365 -38.9247168 31.5844873 -38.56396484 30.91967773 C-32.59901132 20.36142559 -13.94751982 -5.52480232 0 0 Z " fill="#FDFDFD" transform="translate(1184,277)"/>
<path d="M0 0 C8.02384772 5.7414458 13.20762244 12.99786731 16.3125 22.3125 C17.19086722 35.67520137 16.21697921 46.6358857 7.30078125 57.30859375 C0.48273428 64.18022066 -7.89231435 68.64150998 -17.6027832 68.78027344 C-18.41448975 68.7702832 -19.22619629 68.76029297 -20.0625 68.75 C-20.90449951 68.74387695 -21.74649902 68.73775391 -22.61401367 68.73144531 C-28.73020235 68.57707107 -33.50388499 67.72465025 -38.6875 64.3125 C-39.698125 63.755625 -40.70875 63.19875 -41.75 62.625 C-50.29729996 55.8962745 -55.51575044 48.00887401 -57.6875 37.3125 C-58.56233286 25.83873057 -56.6462609 16.89980271 -49.6953125 7.63671875 C-36.92747546 -7.14317042 -16.65687696 -10.30872487 0 0 Z " fill="#FDFDFD" transform="translate(1034.6875,554.6875)"/>
<path d="M0 0 C10.91555101 6.65582379 18.56885887 16.3574178 22.30859375 28.625 C24.39654739 38.81704489 23.67728563 49.26318717 20 59 C19.74476562 59.69222656 19.48953125 60.38445312 19.2265625 61.09765625 C14.56570958 71.85182606 4.57920774 80.70851416 -6.03125 85.31640625 C-18.5961535 89.69277434 -30.77658051 89.23641463 -43 84 C-49.41267382 80.60457143 -55.43974598 76.70031753 -60 71 C-59.96186986 66.61503436 -56.36291061 63.88061395 -53.5 60.9375 C-49.67035465 56.90390903 -45.97467939 52.84973652 -42.5 48.5 C-39.15698041 44.3333379 -35.64884863 40.39580188 -32 36.5 C-27.54574277 31.74390134 -23.37056073 26.84503927 -19.2890625 21.76171875 C-16.28107861 18.13263238 -13.10281043 14.68099977 -9.89892578 11.2253418 C-6.50090599 7.55982348 -3.21652788 3.82506019 0 0 Z " fill="#FDFDFD" transform="translate(1339,396)"/>
<path d="M0 0 C5.00918744 1.47329042 7.51807722 4.27515238 11 8 C9.43767979 11.67956291 7.16415918 14.16515793 4.4375 17.0625 C1.02391359 20.73250604 -2.23955183 24.45998885 -5.375 28.375 C-9.24154184 33.1706049 -13.34851983 37.66878667 -17.5559082 42.16137695 C-21.475704 46.37064995 -25.11258979 50.75734863 -28.71484375 55.2421875 C-32.12826369 59.36163106 -35.76590938 63.2617077 -39.40234375 67.18359375 C-42.67226506 70.72887685 -45.85172191 74.34670802 -49 78 C-51.99220268 76.63629701 -54.29026529 75.05091917 -56.75 72.875 C-57.36359375 72.33617187 -57.9771875 71.79734375 -58.609375 71.2421875 C-59.06828125 70.83226562 -59.5271875 70.42234375 -60 70 C-57.75600175 65.91324821 -55.07410837 62.75639375 -51.875 59.375 C-48.28839508 55.54238887 -44.84624002 51.66267264 -41.5625 47.5625 C-37.71954521 42.78458662 -33.63168671 38.31005016 -29.44384766 33.83837891 C-25.52663542 29.63183422 -21.89133045 25.24882974 -18.29296875 20.765625 C-14.87362829 16.64144604 -11.23235736 12.74023091 -7.578125 8.82421875 C-4.95430359 5.94994166 -2.46941695 3.00682603 0 0 Z " fill="#FAFBFB" transform="translate(1321,381)"/>
<path d="M0 0 C0 0.66 0 1.32 0 2 C-5.99529582 2.57385126 -11.99098106 3.14338002 -17.98706055 3.70898438 C-20.02493252 3.90181945 -22.062695 4.09581551 -24.1003418 4.29101562 C-27.03666305 4.57209937 -29.9733585 4.84894474 -32.91015625 5.125 C-33.81459976 5.21249512 -34.71904327 5.29999023 -35.65089417 5.39013672 C-40.45972224 5.83774446 -45.17046583 6.09204592 -50 6 C-47.38874738 3.38874738 -44.49430184 2.6177917 -41.0625 1.5 C-40.05086792 1.16899292 -40.05086792 1.16899292 -39.01879883 0.83129883 C-25.279905 -3.54513135 -13.89013089 -4.00952232 0 0 Z " fill="#E8E8E8" transform="translate(1265,183)"/>
</svg>
